{
    "asset" : {
        "generator" : "Khronos glTF Blender I/O v1.8.19",
        "version" : "2.0"
    },
    "scene" : 0,
    "scenes" : [
        {
            "name" : "Scene",
            "nodes" : [
                0
            ]
        }
    ],
    "nodes" : [
        {
            "mesh" : 0,
            "name" : "vaisseau_V001.001",
            "rotation" : [
                0,
                -0.7574417591094971,
                0,
                0.6529027223587036
            ],
            "scale" : [
                0.01000000536441803,
                0.01000000536441803,
                0.01000000536441803
            ]
        }
    ],
    "materials" : [
        {
            "doubleSided" : true,
            "name" : "01 - Default",
            "pbrMetallicRoughness" : {
                "baseColorFactor" : [
                    0.5882353186607361,
                    0.5882353186607361,
                    0.5882353186607361,
                    1
                ],
                "roughnessFactor" : 0.858578622341156
            }
        }
    ],
    "meshes" : [
        {
            "name" : "Mesh.001",
            "primitives" : [
                {
                    "attributes" : {
                        "POSITION" : 0,
                        "NORMAL" : 1
                    },
                    "indices" : 2,
                    "material" : 0
                }
            ]
        }
    ],
    "accessors" : [
        {
            "bufferView" : 0,
            "componentType" : 5126,
            "count" : 38321,
            "max" : [
                589.501953125,
                333.14910888671875,
                1056.428466796875
            ],
            "min" : [
                -833.4515991210938,
                -339.6091613769531,
                -580.592041015625
            ],
            "type" : "VEC3"
        },
        {
            "bufferView" : 1,
            "componentType" : 5126,
            "count" : 38321,
            "type" : "VEC3"
        },
        {
            "bufferView" : 2,
            "componentType" : 5123,
            "count" : 132630,
            "type" : "SCALAR"
        }
    ],
    "bufferViews" : [
        {
            "buffer" : 0,
            "byteLength" : 459852,
            "byteOffset" : 0
        },
        {
            "buffer" : 0,
            "byteLength" : 459852,
            "byteOffset" : 459852
        },
        {
            "buffer" : 0,
            "byteLength" : 265260,
            "byteOffset" : 919704
        }
    ],
    "buffers" : [
        {
            "byteLength" : 1184964,
            "uri" : "data:application/octet-stream;base64,"
        }
    ]
}
